<?xml version="1.0" encoding="utf-8"?>
<?xml-stylesheet type="text/xsl" href="rss1.xsl"?>
<rss version="2.0" xmlns:atom="http://www.w3.org/2005/Atom" xmlns:content="http://purl.org/rss/1.0/modules/content/" xmlns:dc="http://purl.org/dc/elements/1.1/" xmlns:media="http://search.yahoo.com/mrss/">
<channel>
 <title>Getty</title>
 <link>http://www.gettyimg.com/</link>
 <atom:link href="http://www.gettyimg.com/" rel="self" type="application/rss+xml" />

 
                <item>
                <title><![CDATA[【UPSCALED】HyunA - Lip &amp; Hip [4K.AI.UPSCALE.x265.10bit]]]></title>
                <link><![CDATA[https://sharemania.us/threads/hyuna-lip-hip-4k-ai-upscale-x265-10bit.229200/]]></link>
                <description><![CDATA[<article>
<blockquote class="messageText SelectQuoteContainer ugc baseHtml">
<img src="https://i.imgur.com/MFA96jz.jpg" class="bbCodeImage LbImage" alt="[​IMG]" data-url="https://i.imgur.com/MFA96jz.jpg" style=""><br>
<img src="https://i.imgur.com/rx2AQaH.jpg" class="bbCodeImage LbImage" alt="[​IMG]" data-url="https://i.imgur.com/rx2AQaH.jpg" style=""><br>
<img src="https://i.imgur.com/9FH1Wye.jpg" class="bbCodeImage LbImage" alt="[​IMG]" data-url="https://i.imgur.com/9FH1Wye.jpg" style=""><br>
<br>
<div class="bbCodeBlock bbCodeCode">
<div class="type">Code:</div>
<pre>General
Format                                   : Matroska
Format version                           : Version 4
File size                                : 372 MiB
Duration                                 : 3 min 37 s
Overall bit rate                         : 14.3 Mb/s
Frame rate                               : 23.976 FPS

Video
ID                                       : 1
Format                                   : HEVC
Format/Info                              : High Efficiency Video Coding
Format profile                           : Main 10@L5.1@High
Codec ID                                 : V_MPEGH/ISO/HEVC
Duration                                 : 3 min 37 s
Bit rate                                 : 13.6 Mb/s
Width                                    : 3 840 pixels
Height                                   : 1 626 pixels
Display aspect ratio                     : 2.35:1
Frame rate mode                          : Constant
Frame rate                               : 23.976 (24000/1001) FPS
Color space                              : YUV
Chroma subsampling                       : 4:2:0 (Type 0)
Bit depth                                : 10 bits
Bits/(Pixel*Frame)                       : 0.091
Stream size                              : 353 MiB (95%)
Default                                  : Yes
Forced                                   : No
Color range                              : Limited
Color primaries                          : BT.709
Transfer characteristics                 : BT.709
Matrix coefficients                      : BT.709

Audio
ID                                       : 2
Format                                   : AC-3
Format/Info                              : Audio Coding 3
Commercial name                          : Dolby Digital
Codec ID                                 : A_AC3
Duration                                 : 3 min 37 s
Bit rate mode                            : Constant
Bit rate                                 : 448 kb/s
Channel(s)                               : 2 channels
Channel layout                           : L R
Sampling rate                            : 48.0 kHz
Frame rate                               : 31.250 FPS (1536 SPF)
Compression mode                         : Lossy
Delay relative to video                  : -5 ms
Stream size                              : 11.6 MiB (3%)
Title                                    : Stereo
Service kind                             : Complete Main
Default                                  : Yes
Forced                                   : No</pre>
</div><div style="text-align: center">
<div class="bbCodeBlock bbCodeVfcHH HiddenContent">
<div class="attribution type">Hidden Content:</div>
<blockquote>You must reply before you can see the hidden data contained here.</blockquote>
</div></div>
<div class="messageTextEndMarker">&nbsp;</div>
</blockquote>
</article>]]></description>
                <author><![CDATA[Librious]]></author>
                </item>

                
                <item>
                <title><![CDATA[【Requests】[REQ AUD] - Primary Discography FLAC]]></title>
                <link><![CDATA[https://sharemania.us/threads/primary-discography-flac.229199/]]></link>
                <description><![CDATA[<article>
<blockquote class="messageText SelectQuoteContainer ugc baseHtml">
Please Reup links for these <a href="https://sharemania.us/threads/req-aud-primary-discography-flac.192426/" class="internalLink">https://sharemania.us/threads/req-aud-primary-discography-flac.192426/</a><br>
<br>
current links are not working <img src="styles/default/xenforo/smilies/unhappy-48.png" class="mceSmilie" alt=":(" title="Frown    :("><br>
<br>
or if anything, I just want primary, dynamicduo johnny.<br>
<br>
please and thank you, much gratitude
<div class="messageTextEndMarker">&nbsp;</div>
</blockquote>
</article>]]></description>
                <author><![CDATA[kungpaomoola]]></author>
                </item>

                </channel></rss>